<svg width="730" height="404" viewBox="0 0 730 404" fill="none" xmlns="http://www.w3.org/2000/svg">
<path d="M463.918 33.2365C446.111 51.044 434.731 73.2905 431.877 95.8773C429.378 115.649 433.613 133.707 443.822 147.776L387.33 204.268L271.251 204.268L289.206 186.312L344.615 165.673C371.514 155.653 390.579 131.623 394.959 103.327L399.626 73.1678C400.642 66.6012 394.79 60.7651 388.237 61.7791L358.08 66.4465C329.783 70.8246 305.753 89.8906 295.733 116.79L275.094 172.197L243.024 204.268L10.0001 205.461C4.48836 205.461 0.0204994 209.93 0.0204996 215.441C0.0204998 220.952 4.48836 225.42 10.0001 225.42L243.024 224.227L270.978 252.182L299.839 329.662C313.231 365.617 345.313 391.044 383.132 396.899L424.88 403.36C431.433 404.373 437.288 398.538 436.269 391.971L429.808 350.224C423.954 312.405 398.526 280.323 362.572 266.93L285.093 238.07L271.251 224.228L416.175 224.228L473.234 281.286C465.339 292.92 462.127 307.573 464.144 323.534C466.522 342.348 475.983 360.862 490.786 375.664C516.625 401.503 563.815 415.921 592.943 386.793C622.059 357.676 607.655 310.481 581.814 284.638C558.151 260.976 517.462 246.602 487.329 267.153L444.403 224.227L557.386 224.227L614.874 250.511C642.532 263.154 674.748 259.421 699.196 241.527L725.461 222.3C730.82 218.377 730.82 210.117 725.461 206.194L699.196 186.967C674.748 169.073 642.531 165.339 614.874 177.983L557.386 204.267L415.557 204.267L457.947 161.876C472.003 172.036 490.025 176.246 509.751 173.753C532.339 170.898 554.585 159.518 572.394 141.712C592.364 121.741 606.008 94.2337 605.062 65.5603C604.88 60.0516 600.265 55.7344 594.757 55.9181C589.247 56.1007 584.941 60.6793 585.114 66.223C585.809 87.1552 575.778 110.101 558.28 127.597C531.874 154.003 495.59 161.732 472.335 147.489L493.513 126.311C493.67 131.684 498.065 135.995 503.477 135.995C508.989 135.995 513.457 131.526 513.457 126.016C513.457 106.17 496.72 93.4244 478.016 93.6729C472.505 93.6729 468.037 98.1417 468.037 103.652C468.037 109.147 472.479 113.603 477.968 113.63L458.202 133.396C443.874 110.143 451.587 73.7935 478.032 47.3496C494.999 30.3823 516.507 20.5913 537.041 20.4855C542.535 20.4576 546.97 15.9947 546.97 10.5069L546.97 10.454C546.942 4.94329 542.45 0.497403 536.939 0.526344C511.189 0.660071 484.574 12.5817 463.918 33.2365ZM527.178 277.797C541.621 279.624 556.012 287.065 567.699 298.753C585.615 316.668 599.975 351.536 578.829 372.68C561.515 389.995 528.35 385.002 504.899 361.551C490.875 347.527 483.454 330.034 483.454 314.529C483.454 307.764 484.878 301.381 487.775 295.827L511.001 319.053C510.715 319.071 510.432 319.097 510.142 319.097C504.63 319.097 500.162 323.566 500.162 329.076C500.162 334.587 504.63 339.056 510.142 339.056C530.711 339.056 543.882 321.712 543.625 302.317C543.625 296.806 539.157 292.338 533.645 292.338C528.133 292.338 523.665 296.806 523.665 302.317L523.665 303.492L501.874 281.701C508.994 277.979 517.677 276.597 527.178 277.797ZM314.437 123.756C321.959 103.562 339.903 89.4525 361.131 86.1722L377.816 83.5895L375.234 100.275C371.948 121.503 357.845 139.446 337.648 146.969L323.15 152.37L343.783 131.737C347.597 127.922 347.606 121.447 343.783 117.623C339.886 113.726 333.567 113.726 329.669 117.623L309.036 138.256L314.437 123.756ZM355.605 285.633C384.851 296.527 405.324 322.531 410.083 353.276L414.458 381.549L386.185 377.173C355.44 372.417 329.434 351.939 318.542 322.695L304.919 286.123L345.083 326.287C348.98 330.184 355.299 330.184 359.197 326.287C363.011 322.472 363.021 315.997 359.197 312.173L319.034 272.01L355.605 285.633ZM623.171 196.137C644.287 186.482 668.746 189.414 687.405 203.074L702.67 214.247L687.405 225.42C668.746 239.081 644.289 242.013 623.171 232.358L605.385 224.227L639.562 224.227C645.073 224.227 649.541 219.758 649.541 214.247C649.541 208.737 645.073 204.268 639.562 204.268L605.388 204.268L623.171 196.137Z" fill="#F8D2C5"/>
<path d="M573.307 15.6523C568.292 17.741 565.822 23.6599 567.908 28.6856C569.994 33.7113 575.916 36.1603 580.941 34.0846C585.966 32.0088 588.423 26.073 586.34 21.0512C584.252 16.0155 578.341 13.5895 573.307 15.6523Z" fill="#F8D2C5"/>
</svg>
